<?xml version="1.0" encoding="utf-8"?>
<!-- Generator: Adobe Illustrator 19.0.0, SVG Export Plug-In . SVG Version: 6.00 Build 0)  -->
<svg version="1.1" id="Layer_1" xmlns="http://www.w3.org/2000/svg" xmlns:xlink="http://www.w3.org/1999/xlink" x="0px" y="0px"
	 viewBox="-396 265 167 31" style="enable-background:new -396 265 167 31;" xml:space="preserve">
<style type="text/css">
	.st0{display:none;}
	.st1{display:inline;}
	.st2{font-family:'URWGeometric-Black';}
	.st3{font-size:21px;}
</style>
<g id="XMLID_46_">
	
		<image style="overflow:visible;" width="938" height="1088" id="XMLID_2_" xlink:href="C:\Users\User\Downloads\Compressed\Bahan\Logo PKB Lebah.png"  transform="matrix(2.784057e-002 0 0 2.784057e-002 -396 265)">
	</image>
	<g id="XMLID_3_">
		<g class="st0">
			<path id="XMLID_6_" class="st1" d="M-373.3,271.1h3.5c2.1,0,3.8,0.5,5.2,1.5c1.7,1.3,2.5,3.1,2.5,5.4c0,2.3-0.8,4.1-2.5,5.4
				c-1.3,1-3.1,1.5-5.2,1.5h-3.5V271.1z M-369.9,274.3v7.6h0.2c1.2,0,2.2-0.3,2.9-0.9c0.9-0.7,1.3-1.7,1.3-3c0-1.3-0.4-2.3-1.3-2.9
				c-0.7-0.6-1.7-0.9-2.9-0.9H-369.9z"/>
			<path id="XMLID_9_" class="st1" d="M-356.9,280.4v4.6h-3.4v-13.9h3.5c1.1,0,2,0.1,2.7,0.4c1,0.4,1.7,1.1,2.2,2.1
				c0.3,0.6,0.4,1.3,0.4,2c0,1.4-0.5,2.6-1.5,3.5c-0.6,0.5-1.2,0.9-2,1c-0.5,0.1-1.1,0.2-1.8,0.2H-356.9z M-356.9,277.3h0.3
				c0.7,0,1.2-0.1,1.4-0.4c0.3-0.3,0.4-0.7,0.4-1.2c0-1.1-0.5-1.5-1.8-1.5h-0.3V277.3z"/>
			<path id="XMLID_14_" class="st1" d="M-328.3,280.4v4.6h-3.4v-13.9h3.5c1.1,0,2,0.1,2.7,0.4c1,0.4,1.7,1.1,2.2,2.1
				c0.3,0.6,0.4,1.3,0.4,2c0,1.4-0.5,2.6-1.5,3.5c-0.6,0.5-1.2,0.9-2,1c-0.5,0.1-1.1,0.2-1.8,0.2H-328.3z M-328.3,277.3h0.3
				c0.7,0,1.2-0.1,1.4-0.4c0.3-0.3,0.4-0.7,0.4-1.2c0-1.1-0.5-1.5-1.8-1.5h-0.3V277.3z"/>
			<path id="XMLID_17_" class="st1" d="M-315.1,277.1l5.3,8h-4l-3.6-5.5l-0.8,0.8v4.7h-3.4v-13.9h3.4v4.6l4.3-4.6h4.4L-315.1,277.1z
				"/>
			<path id="XMLID_19_" class="st1" d="M-308.5,285v-13.9h3.6c1.6,0,2.8,0.3,3.6,0.9c0.5,0.4,0.9,0.9,1.2,1.5
				c0.3,0.5,0.4,1.1,0.4,1.7c0,0.5-0.1,0.9-0.3,1.2c-0.2,0.4-0.5,0.7-0.9,1.1c1.2,0.9,1.8,2,1.8,3.2c0,1.3-0.5,2.4-1.6,3.2
				c-0.5,0.4-1,0.6-1.5,0.8c-0.6,0.2-1.2,0.2-2.1,0.2H-308.5z M-305.2,276.6h0.5c0.5,0,0.8,0,1-0.1c0.2,0,0.4-0.1,0.5-0.3
				c0.3-0.2,0.4-0.6,0.4-1c0-0.9-0.5-1.3-1.9-1.3h-0.5V276.6z M-305.2,282h0.8c0.9,0,1.3-0.1,1.7-0.4c0.3-0.2,0.4-0.6,0.4-1
				c0-0.5-0.2-0.9-0.5-1.1c-0.3-0.2-0.9-0.3-1.7-0.3h-0.6V282z"/>
			<path id="XMLID_12_" class="st1" d="M-340.2,275.8c-1.1-1.3-2.1-1.9-3.3-1.9c-1.3,0-2.3,0.5-3.1,1.5c-0.6,0.8-0.9,1.7-0.9,2.7
				c0,1.2,0.4,2.2,1.3,3.1c0.8,0.7,1.7,1.1,2.8,1.1c1.2,0,2.2-0.5,3.4-1.9l2.4,2.2c-1.7,1.9-3.7,2.8-5.7,2.8c-1.4,0-2.7-0.3-3.9-1
				c-1.1-0.6-2-1.5-2.6-2.6c-0.7-1.1-1-2.4-1-3.7s0.3-2.5,1-3.6c0.7-1.1,1.6-2.1,2.8-2.7c1.1-0.6,2.4-1,3.8-1c1.4,0,2.7,0.4,3.9,1.2
				c0.5,0.4,1.1,0.9,1.7,1.5L-340.2,275.8z"/>
		</g>
		<g id="XMLID_5_" class="st0">
			<path id="XMLID_23_" class="st1" d="M-369.4,290.5l3.2,4.8h-2.4l-2.2-3.3l-0.5,0.5v2.8h-2V287h2v2.7l2.6-2.7h2.6L-369.4,290.5z"
				/>
			<path id="XMLID_25_" class="st1" d="M-358.1,288.2c0.8,0.8,1.2,1.8,1.2,2.9c0,0.8-0.2,1.5-0.6,2.2c-0.4,0.7-0.9,1.2-1.6,1.6
				c-0.7,0.4-1.5,0.6-2.3,0.6c-0.8,0-1.5-0.2-2.2-0.6c-0.7-0.4-1.2-0.9-1.6-1.6c-0.4-0.7-0.6-1.4-0.6-2.3c0-0.8,0.2-1.5,0.6-2.1
				c0.4-0.7,1-1.2,1.7-1.6c0.7-0.4,1.4-0.6,2.2-0.6C-360.1,286.7-359,287.2-358.1,288.2z M-363.3,289.5c-0.4,0.5-0.6,1-0.6,1.7
				c0,0.7,0.3,1.3,0.8,1.8c0.5,0.4,1,0.7,1.7,0.7c0.4,0,0.8-0.1,1.2-0.4c0.4-0.2,0.7-0.5,0.9-0.9c0.2-0.4,0.3-0.8,0.3-1.2
				c0-0.7-0.3-1.3-0.8-1.8c-0.5-0.5-1-0.7-1.7-0.7C-362.2,288.6-362.8,288.9-363.3,289.5z"/>
			<path id="XMLID_28_" class="st1" d="M-352.8,288.8v6.4h-2v-6.4h-1.9V287h5.9v1.9H-352.8z"/>
			<path id="XMLID_30_" class="st1" d="M-345.5,293.6h-3l-0.6,1.7h-2.1l3.1-8.3h2.3l3.1,8.3h-2.2L-345.5,293.6z M-346.1,291.7
				l-0.9-2.5l-0.9,2.5H-346.1z"/>
			<path id="XMLID_33_" class="st1" d="M-333.4,289.7c-0.7-0.8-1.3-1.1-2-1.1c-0.8,0-1.4,0.3-1.9,0.9c-0.4,0.5-0.6,1-0.6,1.6
				c0,0.7,0.3,1.3,0.8,1.8c0.5,0.4,1,0.7,1.7,0.7c0.7,0,1.3-0.3,2-1.1l1.5,1.3c-1,1.1-2.2,1.7-3.4,1.7c-0.8,0-1.6-0.2-2.3-0.6
				c-0.7-0.4-1.2-0.9-1.6-1.6c-0.4-0.7-0.6-1.4-0.6-2.2c0-0.8,0.2-1.5,0.6-2.2c0.4-0.7,1-1.2,1.7-1.6c0.7-0.4,1.4-0.6,2.3-0.6
				c0.9,0,1.6,0.3,2.4,0.7c0.3,0.2,0.7,0.5,1,0.9L-333.4,289.7z"/>
			<path id="XMLID_35_" class="st1" d="M-329,287v8.3h-2V287H-329z"/>
			<path id="XMLID_37_" class="st1" d="M-327.4,295.3V287h1.8l2.4,4.1l2.4-4.1h1.8v8.3h-2v-4.2l-1.5,2.6h-1.4l-1.5-2.6v4.2H-327.4z"
				/>
			<path id="XMLID_39_" class="st1" d="M-312.6,293.6h-3l-0.6,1.7h-2.1l3.1-8.3h2.3l3.1,8.3h-2.2L-312.6,293.6z M-313.3,291.7
				l-0.9-2.5l-0.9,2.5H-313.3z"/>
			<path id="XMLID_42_" class="st1" d="M-307.2,290.1h2.6V287h2v8.3h-2V292h-2.6v3.3h-2V287h2V290.1z"/>
			<path id="XMLID_44_" class="st1" d="M-299,287v8.3h-2V287H-299z"/>
		</g>
	</g>
</g>
<g>
	<defs>
		<text id="SVGID_1_" transform="matrix(1 0 0 1 -374.1656 285.4126)" class="st2 st3">DPC PKB</text>
	</defs>
	<clipPath id="SVGID_2_">
		<use xlink:href="#SVGID_1_"  style="overflow:visible;"/>
	</clipPath>
	<g style="clip-path:url(#SVGID_2_);">
		
			<image style="overflow:visible;" width="3601" height="3601" xlink:href="6B1E9835.jpg"  transform="matrix(2.173508e-002 0 0 2.057929e-002 -374.847 220.894)">
		</image>
	</g>
</g>
<g>
	<defs>
		<path id="SVGID_3_" d="M-369.4,290.4l3.2,4.8h-2.4l-2.2-3.4l-0.5,0.5v2.8h-2.1v-8.4h2.1v2.8l2.6-2.8h2.7L-369.4,290.4z M-358,288
			c0.8,0.8,1.2,1.8,1.2,3c0,0.8-0.2,1.5-0.6,2.2c-0.4,0.7-0.9,1.2-1.6,1.6c-0.7,0.4-1.5,0.6-2.3,0.6c-0.8,0-1.6-0.2-2.3-0.6
			c-0.7-0.4-1.2-0.9-1.6-1.6c-0.4-0.7-0.6-1.5-0.6-2.3c0-0.8,0.2-1.5,0.6-2.2c0.4-0.7,1-1.2,1.7-1.6c0.7-0.4,1.4-0.6,2.2-0.6
			C-360,286.5-358.9,287-358,288z M-363.3,289.3c-0.4,0.5-0.6,1-0.6,1.7c0,0.7,0.3,1.3,0.8,1.8c0.5,0.5,1.1,0.7,1.7,0.7
			c0.4,0,0.9-0.1,1.3-0.4c0.4-0.2,0.7-0.5,0.9-0.9c0.2-0.4,0.3-0.8,0.3-1.2c0-0.7-0.3-1.3-0.8-1.8c-0.5-0.5-1.1-0.7-1.7-0.7
			C-362.1,288.5-362.8,288.7-363.3,289.3z M-352.7,288.7v6.5h-2.1v-6.5h-1.9v-1.9h6v1.9H-352.7z M-345.2,293.5h-3l-0.6,1.7h-2.2
			l3.2-8.4h2.3l3.2,8.4h-2.2L-345.2,293.5z M-345.9,291.5l-0.9-2.6l-0.9,2.6H-345.9z M-333.1,289.6c-0.7-0.8-1.3-1.1-2-1.1
			c-0.8,0-1.4,0.3-1.9,0.9c-0.4,0.5-0.6,1-0.6,1.6c0,0.7,0.3,1.4,0.8,1.9c0.5,0.5,1,0.7,1.7,0.7c0.7,0,1.3-0.3,2-1.1l1.5,1.4
			c-1.1,1.1-2.2,1.7-3.5,1.7c-0.8,0-1.6-0.2-2.3-0.6c-0.7-0.4-1.2-0.9-1.6-1.6c-0.4-0.7-0.6-1.4-0.6-2.2c0-0.8,0.2-1.5,0.6-2.2
			c0.4-0.7,1-1.2,1.7-1.6c0.7-0.4,1.5-0.6,2.3-0.6c0.9,0,1.7,0.3,2.4,0.8c0.3,0.2,0.7,0.5,1,0.9L-333.1,289.6z M-328.5,286.8v8.4
			h-2.1v-8.4H-328.5z M-327,295.2v-8.4h1.9l2.4,4.1l2.4-4.1h1.9v8.4h-2.1V291l-1.5,2.6h-1.4l-1.5-2.6v4.3H-327z M-312,293.5h-3
			l-0.6,1.7h-2.2l3.2-8.4h2.3l3.2,8.4h-2.2L-312,293.5z M-312.6,291.5l-0.9-2.6l-0.9,2.6H-312.6z M-306.5,290h2.6v-3.2h2.1v8.4h-2.1
			v-3.3h-2.6v3.3h-2.1v-8.4h2.1V290z M-298.2,286.8v8.4h-2.1v-8.4H-298.2z"/>
	</defs>
	<clipPath id="SVGID_4_">
		<use xlink:href="#SVGID_3_"  style="overflow:visible;"/>
	</clipPath>
	<g style="clip-path:url(#SVGID_4_);">
		
			<image style="overflow:visible;" width="3601" height="3601" xlink:href="6B1E9832.jpg"  transform="matrix(2.173508e-002 0 0 2.057929e-002 -374.847 220.894)">
		</image>
	</g>
</g>
</svg>
